<svg width="91" height="20" viewBox="0 0 91 20" fill="none" xmlns="http://www.w3.org/2000/svg">
<path fill-rule="evenodd" clip-rule="evenodd" d="M9.816 0.124001C12.364 0.124001 15.094 0.67 17.044 2.438L14.626 4.882C13.378 3.686 11.532 3.088 9.816 3.088C6.046 3.088 3.498 6 3.498 9.666C3.498 13.462 5.89 16.504 9.842 16.504C11.22 16.504 12.832 16.27 14.132 15.542V11.2H10.362V8.236H17.408V17.648C14.964 18.948 12.39 19.468 9.816 19.468C4.096 19.468 0.0660019 15.568 0.0660019 9.874C0.0660019 4.076 4.018 0.124001 9.816 0.124001ZM26.658 6.208C30.61 6.208 32.508 9.198 32.508 12.968V13.852H22.992C23.2 15.646 24.552 16.816 26.346 16.816C27.75 16.816 28.816 16.218 29.7 15.126L31.936 16.816C30.584 18.48 28.79 19.312 26.658 19.312C22.836 19.312 19.872 16.66 19.872 12.76C19.872 8.886 22.836 6.208 26.658 6.208ZM22.992 11.512H29.388C29.362 9.562 28.036 8.548 26.19 8.548C24.344 8.548 23.226 9.744 22.992 11.512ZM41.758 6.208C45.476 6.208 46.308 9.094 46.308 11.018V19H43.188V12.526C43.188 10.03 42.382 9.016 40.9 9.016C38.898 9.016 38.04 10.472 38.04 12.136V19H34.92V6.52H37.884V8.522H37.936C38.69 6.884 40.12 6.208 41.758 6.208ZM55.506 6.208C59.458 6.208 61.356 9.198 61.356 12.968V13.852H51.84C52.048 15.646 53.4 16.816 55.194 16.816C56.598 16.816 57.664 16.218 58.548 15.126L60.784 16.816C59.432 18.48 57.638 19.312 55.506 19.312C51.684 19.312 48.72 16.66 48.72 12.76C48.72 8.886 51.684 6.208 55.506 6.208ZM51.84 11.512H58.236C58.21 9.562 56.884 8.548 55.038 8.548C53.192 8.548 52.074 9.744 51.84 11.512ZM68.032 6.208C69.982 6.208 71.594 6.884 72.504 8.106L70.424 9.978C69.8 9.12 69.02 8.704 67.98 8.704C66.966 8.704 66.16 9.224 66.16 10.03C66.16 11.044 67.564 11.226 69.124 11.59C71.048 12.032 72.894 12.734 72.894 15.308C72.894 17.934 70.58 19.312 67.486 19.312C65.562 19.312 63.924 18.818 62.65 17.388L64.73 15.438C65.796 16.608 66.628 16.972 67.694 16.972C68.838 16.972 69.774 16.4 69.774 15.542C69.774 14.346 68.266 14.138 66.68 13.774C64.99 13.384 63.04 12.786 63.04 10.238C63.04 7.196 65.9 6.208 68.032 6.208ZM76.398 0.410001C77.542 0.410001 78.426 1.216 78.426 2.282C78.426 3.4 77.516 4.154 76.398 4.154C75.28 4.154 74.422 3.296 74.422 2.282C74.422 1.268 75.28 0.410001 76.398 0.410001ZM74.864 6.52H77.984V19H74.864V6.52ZM85.336 6.208C87.286 6.208 88.898 6.884 89.808 8.106L87.728 9.978C87.104 9.12 86.324 8.704 85.284 8.704C84.27 8.704 83.464 9.224 83.464 10.03C83.464 11.044 84.868 11.226 86.428 11.59C88.352 12.032 90.198 12.734 90.198 15.308C90.198 17.934 87.884 19.312 84.79 19.312C82.866 19.312 81.228 18.818 79.954 17.388L82.034 15.438C83.1 16.608 83.932 16.972 84.998 16.972C86.142 16.972 87.078 16.4 87.078 15.542C87.078 14.346 85.57 14.138 83.984 13.774C82.294 13.384 80.344 12.786 80.344 10.238C80.344 7.196 83.204 6.208 85.336 6.208Z" fill="#111111"/>
<path d="M17.044 2.438L17.3994 2.78966L17.7668 2.41839L17.3798 2.06758L17.044 2.438ZM14.626 4.882L14.28 5.24299L14.6353 5.58348L14.9814 5.23366L14.626 4.882ZM14.132 15.542L14.3763 15.9783L14.632 15.8351V15.542H14.132ZM14.132 11.2H14.632V10.7H14.132V11.2ZM10.362 11.2H9.862V11.7H10.362V11.2ZM10.362 8.236V7.736H9.862V8.236H10.362ZM17.408 8.236H17.908V7.736H17.408V8.236ZM17.408 17.648L17.6428 18.0894L17.908 17.9484V17.648H17.408ZM32.508 13.852V14.352H33.008V13.852H32.508ZM22.992 13.852V13.352H22.4307L22.4953 13.9096L22.992 13.852ZM29.7 15.126L30.0015 14.7271L29.6157 14.4355L29.3114 14.8114L29.7 15.126ZM31.936 16.816L32.3241 17.1313L32.6506 16.7294L32.2375 16.4171L31.936 16.816ZM22.992 11.512L22.4963 11.4464L22.4215 12.012H22.992V11.512ZM29.388 11.512V12.012H29.8947L29.888 11.5053L29.388 11.512ZM46.308 19V19.5H46.808V19H46.308ZM43.188 19H42.688V19.5H43.188V19ZM38.04 19V19.5H38.54V19H38.04ZM34.92 19H34.42V19.5H34.92V19ZM34.92 6.52V6.02H34.42V6.52H34.92ZM37.884 6.52H38.384V6.02H37.884V6.52ZM37.884 8.522H37.384V9.022H37.884V8.522ZM37.936 8.522V9.022H38.2563L38.3902 8.73107L37.936 8.522ZM61.356 13.852V14.352H61.856V13.852H61.356ZM51.84 13.852V13.352H51.2787L51.3433 13.9096L51.84 13.852ZM58.548 15.126L58.8495 14.7271L58.4637 14.4355L58.1594 14.8114L58.548 15.126ZM60.784 16.816L61.1721 17.1313L61.4986 16.7294L61.0855 16.4171L60.784 16.816ZM51.84 11.512L51.3443 11.4464L51.2695 12.012H51.84V11.512ZM58.236 11.512V12.012H58.7427L58.736 11.5053L58.236 11.512ZM72.504 8.106L72.8385 8.47765L73.1772 8.17283L72.905 7.80737L72.504 8.106ZM70.424 9.978L70.0196 10.2721L70.346 10.7209L70.7585 10.3496L70.424 9.978ZM69.124 11.59L69.0104 12.0769L69.0121 12.0773L69.124 11.59ZM62.65 17.388L62.308 17.0232L61.9524 17.3566L62.2767 17.7206L62.65 17.388ZM64.73 15.438L65.0996 15.1013L64.758 14.7264L64.388 15.0732L64.73 15.438ZM66.68 13.774L66.5676 14.2612L66.5682 14.2613L66.68 13.774ZM74.864 6.52V6.02H74.364V6.52H74.864ZM77.984 6.52H78.484V6.02H77.984V6.52ZM77.984 19V19.5H78.484V19H77.984ZM74.864 19H74.364V19.5H74.864V19ZM89.808 8.106L90.1425 8.47765L90.4812 8.17283L90.209 7.80737L89.808 8.106ZM87.728 9.978L87.3236 10.2721L87.65 10.7209L88.0625 10.3496L87.728 9.978ZM86.428 11.59L86.3144 12.0769L86.3161 12.0773L86.428 11.59ZM79.954 17.388L79.612 17.0232L79.2564 17.3566L79.5807 17.7206L79.954 17.388ZM82.034 15.438L82.4036 15.1013L82.062 14.7264L81.692 15.0732L82.034 15.438ZM83.984 13.774L83.8716 14.2612L83.8722 14.2613L83.984 13.774ZM9.816 0.624001C12.3103 0.624001 14.8916 1.16139 16.7082 2.80842L17.3798 2.06758C15.2964 0.178614 12.4177 -0.375999 9.816 -0.375999V0.624001ZM16.6886 2.08634L14.2706 4.53034L14.9814 5.23366L17.3994 2.78966L16.6886 2.08634ZM14.972 4.52101C13.6125 3.21823 11.6331 2.588 9.816 2.588V3.588C11.4309 3.588 13.1435 4.15377 14.28 5.24299L14.972 4.52101ZM9.816 2.588C5.73837 2.588 2.998 5.75643 2.998 9.666H3.998C3.998 6.24357 6.35363 3.588 9.816 3.588V2.588ZM2.998 9.666C2.998 11.6668 3.62874 13.4999 4.81343 14.8397C6.00393 16.1861 7.72824 17.004 9.842 17.004V16.004C8.00376 16.004 6.55607 15.3009 5.56258 14.1773C4.56327 13.0471 3.998 11.4612 3.998 9.666H2.998ZM9.842 17.004C11.2634 17.004 12.972 16.7647 14.3763 15.9783L13.8877 15.1057C12.692 15.7753 11.1766 16.004 9.842 16.004V17.004ZM14.632 15.542V11.2H13.632V15.542H14.632ZM14.132 10.7H10.362V11.7H14.132V10.7ZM10.862 11.2V8.236H9.862V11.2H10.862ZM10.362 8.736H17.408V7.736H10.362V8.736ZM16.908 8.236V17.648H17.908V8.236H16.908ZM17.1732 17.2066C14.8121 18.4625 12.3211 18.968 9.816 18.968V19.968C12.4589 19.968 15.1159 19.4335 17.6428 18.0894L17.1732 17.2066ZM9.816 18.968C7.07178 18.968 4.76467 18.0343 3.14583 16.449C1.52796 14.8647 0.566002 12.5991 0.566002 9.874H-0.433998C-0.433998 12.8429 0.619047 15.3743 2.44618 17.1635C4.27233 18.9517 6.84023 19.968 9.816 19.968V18.968ZM0.566002 9.874C0.566002 7.09142 1.51218 4.78643 3.12031 3.1783C4.72843 1.57018 7.03342 0.624001 9.816 0.624001V-0.375999C6.80058 -0.375999 4.23057 0.653822 2.4132 2.4712C0.595823 4.28857 -0.433998 6.85858 -0.433998 9.874H0.566002ZM26.658 6.708C28.494 6.708 29.8074 7.39538 30.6736 8.48532C31.5521 9.59083 32.008 11.1596 32.008 12.968H33.008C33.008 11.0064 32.5149 9.19517 31.4565 7.86318C30.3856 6.51562 28.774 5.708 26.658 5.708V6.708ZM32.008 12.968V13.852H33.008V12.968H32.008ZM32.508 13.352H22.992V14.352H32.508V13.352ZM22.4953 13.9096C22.7333 15.9619 24.3043 17.316 26.346 17.316V16.316C24.7997 16.316 23.6667 15.3301 23.4887 13.7944L22.4953 13.9096ZM26.346 17.316C27.9241 17.316 29.1253 16.6306 30.0886 15.4406L29.3114 14.8114C28.5067 15.8054 27.5759 16.316 26.346 16.316V17.316ZM29.3985 15.5249L31.6345 17.2149L32.2375 16.4171L30.0015 14.7271L29.3985 15.5249ZM31.5479 16.5007C30.2929 18.0453 28.6427 18.812 26.658 18.812V19.812C28.9373 19.812 30.8751 18.9147 32.3241 17.1313L31.5479 16.5007ZM26.658 18.812C23.0846 18.812 20.372 16.3571 20.372 12.76H19.372C19.372 16.9629 22.5874 19.812 26.658 19.812V18.812ZM20.372 12.76C20.372 9.18761 23.086 6.708 26.658 6.708V5.708C22.586 5.708 19.372 8.58439 19.372 12.76H20.372ZM22.992 12.012H29.388V11.012H22.992V12.012ZM29.888 11.5053C29.8734 10.4114 29.4892 9.52781 28.8017 8.92327C28.1223 8.3259 27.2006 8.048 26.19 8.048V9.048C27.0254 9.048 27.6897 9.27711 28.1413 9.67424C28.5848 10.0642 28.8766 10.6626 28.888 11.5187L29.888 11.5053ZM26.19 8.048C25.1528 8.048 24.2826 8.38716 23.6395 9.007C23.0016 9.62184 22.6247 10.4761 22.4963 11.4464L23.4877 11.5776C23.5933 10.7799 23.8924 10.1522 24.3335 9.727C24.7694 9.30684 25.3812 9.048 26.19 9.048V8.048ZM41.758 6.708C43.4662 6.708 44.4452 7.35973 45.0175 8.17805C45.6102 9.02555 45.808 10.1136 45.808 11.018H46.808C46.808 9.99836 46.5898 8.68145 45.837 7.60496C45.0638 6.49927 43.7678 5.708 41.758 5.708V6.708ZM45.808 11.018V19H46.808V11.018H45.808ZM46.308 18.5H43.188V19.5H46.308V18.5ZM43.688 19V12.526H42.688V19H43.688ZM43.688 12.526C43.688 11.2421 43.4841 10.2424 43.0125 9.55274C42.5144 8.82453 41.7712 8.516 40.9 8.516V9.516C41.5108 9.516 41.9116 9.71447 42.187 10.1173C42.4889 10.5586 42.688 11.3139 42.688 12.526H43.688ZM40.9 8.516C39.7653 8.516 38.901 8.93539 38.3312 9.6367C37.774 10.3225 37.54 11.2256 37.54 12.136H38.54C38.54 11.3824 38.735 10.7255 39.1073 10.2673C39.467 9.82462 40.0327 9.516 40.9 9.516V8.516ZM37.54 12.136V19H38.54V12.136H37.54ZM38.04 18.5H34.92V19.5H38.04V18.5ZM35.42 19V6.52H34.42V19H35.42ZM34.92 7.02H37.884V6.02H34.92V7.02ZM37.384 6.52V8.522H38.384V6.52H37.384ZM37.884 9.022H37.936V8.022H37.884V9.022ZM38.3902 8.73107C39.046 7.30636 40.2723 6.708 41.758 6.708V5.708C39.9677 5.708 38.334 6.46164 37.4818 8.31293L38.3902 8.73107ZM55.506 6.708C57.342 6.708 58.6554 7.39538 59.5216 8.48532C60.4001 9.59083 60.856 11.1596 60.856 12.968H61.856C61.856 11.0064 61.3629 9.19517 60.3045 7.86318C59.2336 6.51562 57.622 5.708 55.506 5.708V6.708ZM60.856 12.968V13.852H61.856V12.968H60.856ZM61.356 13.352H51.84V14.352H61.356V13.352ZM51.3433 13.9096C51.5813 15.9619 53.1523 17.316 55.194 17.316V16.316C53.6477 16.316 52.5147 15.3301 52.3367 13.7944L51.3433 13.9096ZM55.194 17.316C56.7721 17.316 57.9733 16.6306 58.9366 15.4406L58.1594 14.8114C57.3547 15.8054 56.4239 16.316 55.194 16.316V17.316ZM58.2465 15.5249L60.4825 17.2149L61.0855 16.4171L58.8495 14.7271L58.2465 15.5249ZM60.3959 16.5007C59.1409 18.0453 57.4907 18.812 55.506 18.812V19.812C57.7853 19.812 59.7231 18.9147 61.1721 17.1313L60.3959 16.5007ZM55.506 18.812C51.9326 18.812 49.22 16.3571 49.22 12.76H48.22C48.22 16.9629 51.4354 19.812 55.506 19.812V18.812ZM49.22 12.76C49.22 9.18761 51.934 6.708 55.506 6.708V5.708C51.434 5.708 48.22 8.58439 48.22 12.76H49.22ZM51.84 12.012H58.236V11.012H51.84V12.012ZM58.736 11.5053C58.7214 10.4114 58.3372 9.52781 57.6497 8.92327C56.9703 8.3259 56.0486 8.048 55.038 8.048V9.048C55.8734 9.048 56.5377 9.27711 56.9893 9.67424C57.4328 10.0642 57.7246 10.6626 57.736 11.5187L58.736 11.5053ZM55.038 8.048C54.0008 8.048 53.1306 8.38716 52.4875 9.007C51.8496 9.62184 51.4727 10.4761 51.3443 11.4464L52.3357 11.5776C52.4413 10.7799 52.7404 10.1522 53.1815 9.727C53.6174 9.30684 54.2292 9.048 55.038 9.048V8.048ZM68.032 6.708C69.8757 6.708 71.3144 7.34575 72.103 8.40463L72.905 7.80737C71.8736 6.42226 70.0883 5.708 68.032 5.708V6.708ZM72.1695 7.73435L70.0895 9.60635L70.7585 10.3496L72.8385 8.47765L72.1695 7.73435ZM70.8284 9.68391C70.1155 8.70377 69.1887 8.204 67.98 8.204V9.204C68.8513 9.204 69.4845 9.53623 70.0196 10.2721L70.8284 9.68391ZM67.98 8.204C67.3938 8.204 66.8322 8.35346 66.4022 8.65571C65.9626 8.96472 65.66 9.4392 65.66 10.03H66.66C66.66 9.8148 66.7604 9.62628 66.9773 9.4738C67.2038 9.31454 67.5522 9.204 67.98 9.204V8.204ZM65.66 10.03C65.66 10.4148 65.7991 10.7381 66.0401 10.9935C66.2673 11.2343 66.5676 11.3969 66.8718 11.5182C67.4642 11.7545 68.2717 11.9046 69.0104 12.0769L69.2376 11.1031C68.4163 10.9114 67.7418 10.7885 67.2422 10.5893C67.0004 10.4929 66.8522 10.397 66.7674 10.3072C66.6964 10.2319 66.66 10.1522 66.66 10.03H65.66ZM69.0121 12.0773C69.9684 12.297 70.8138 12.5643 71.4213 13.0424C71.9943 13.4934 72.394 14.1631 72.394 15.308H73.394C73.394 13.8789 72.8707 12.9106 72.0397 12.2566C71.2432 11.6297 70.2036 11.325 69.236 11.1027L69.0121 12.0773ZM72.394 15.308C72.394 16.4515 71.9004 17.3018 71.0644 17.8846C70.2089 18.4808 68.9676 18.812 67.486 18.812V19.812C69.0984 19.812 70.5611 19.4542 71.6361 18.7049C72.7306 17.9422 73.394 16.7905 73.394 15.308H72.394ZM67.486 18.812C65.6545 18.812 64.1736 18.3465 63.0233 17.0554L62.2767 17.7206C63.6744 19.2895 65.4695 19.812 67.486 19.812V18.812ZM62.992 17.7528L65.072 15.8028L64.388 15.0732L62.308 17.0232L62.992 17.7528ZM64.3604 15.7747C64.9177 16.3864 65.4399 16.8167 65.9884 17.091C66.5445 17.369 67.0982 17.472 67.694 17.472V16.472C67.2238 16.472 66.8285 16.393 66.4356 16.1965C66.0351 15.9963 65.6083 15.6596 65.0996 15.1013L64.3604 15.7747ZM67.694 17.472C68.3427 17.472 68.9642 17.3108 69.4395 16.9953C69.9214 16.6754 70.274 16.1763 70.274 15.542H69.274C69.274 15.7657 69.1586 15.9816 68.8865 16.1622C68.6078 16.3472 68.1893 16.472 67.694 16.472V17.472ZM70.274 15.542C70.274 15.1258 70.1385 14.7724 69.8928 14.4865C69.6577 14.2129 69.3432 14.0257 69.019 13.8866C68.3893 13.6162 67.5448 13.4595 66.7918 13.2867L66.5682 14.2613C67.4012 14.4525 68.1037 14.5818 68.6245 14.8054C68.8756 14.9133 69.0372 15.0251 69.1344 15.1382C69.2211 15.2391 69.274 15.3602 69.274 15.542H70.274ZM66.7924 13.2868C65.944 13.091 65.1294 12.8613 64.5236 12.4132C63.9555 11.9931 63.54 11.3574 63.54 10.238H62.54C62.54 11.6666 63.0995 12.6039 63.929 13.2173C64.7206 13.8027 65.726 14.067 66.5676 14.2612L66.7924 13.2868ZM63.54 10.238C63.54 8.90541 64.1523 8.04895 65.0058 7.50356C65.8839 6.94239 67.0299 6.708 68.032 6.708V5.708C66.9021 5.708 65.5522 5.96761 64.4673 6.66094C63.3577 7.37005 62.54 8.52859 62.54 10.238H63.54ZM76.398 0.910001C77.3061 0.910001 77.926 1.53075 77.926 2.282H78.926C78.926 0.901251 77.7779 -0.0899994 76.398 -0.0899994V0.910001ZM77.926 2.282C77.926 3.07255 77.2941 3.654 76.398 3.654V4.654C77.7379 4.654 78.926 3.72745 78.926 2.282H77.926ZM76.398 3.654C75.5384 3.654 74.922 3.0024 74.922 2.282H73.922C73.922 3.5896 75.0216 4.654 76.398 4.654V3.654ZM74.922 2.282C74.922 1.5616 75.5384 0.910001 76.398 0.910001V-0.0899994C75.0216 -0.0899994 73.922 0.974403 73.922 2.282H74.922ZM74.864 7.02H77.984V6.02H74.864V7.02ZM77.484 6.52V19H78.484V6.52H77.484ZM77.984 18.5H74.864V19.5H77.984V18.5ZM75.364 19V6.52H74.364V19H75.364ZM85.336 6.708C87.1797 6.708 88.6184 7.34575 89.407 8.40463L90.209 7.80737C89.1776 6.42226 87.3923 5.708 85.336 5.708V6.708ZM89.4735 7.73435L87.3935 9.60635L88.0625 10.3496L90.1425 8.47765L89.4735 7.73435ZM88.1324 9.68391C87.4195 8.70377 86.4927 8.204 85.284 8.204V9.204C86.1553 9.204 86.7885 9.53623 87.3236 10.2721L88.1324 9.68391ZM85.284 8.204C84.6978 8.204 84.1362 8.35346 83.7062 8.65571C83.2666 8.96472 82.964 9.4392 82.964 10.03H83.964C83.964 9.8148 84.0644 9.62628 84.2813 9.4738C84.5078 9.31454 84.8562 9.204 85.284 9.204V8.204ZM82.964 10.03C82.964 10.4148 83.1031 10.7381 83.3441 10.9935C83.5713 11.2343 83.8716 11.3969 84.1758 11.5182C84.7682 11.7545 85.5757 11.9046 86.3144 12.0769L86.5416 11.1031C85.7203 10.9114 85.0458 10.7885 84.5462 10.5893C84.3044 10.4929 84.1562 10.397 84.0714 10.3072C84.0004 10.2319 83.964 10.1522 83.964 10.03H82.964ZM86.3161 12.0773C87.2724 12.297 88.1178 12.5643 88.7253 13.0424C89.2983 13.4934 89.698 14.1631 89.698 15.308H90.698C90.698 13.8789 90.1747 12.9106 89.3437 12.2566C88.5472 11.6297 87.5076 11.325 86.54 11.1027L86.3161 12.0773ZM89.698 15.308C89.698 16.4515 89.2044 17.3018 88.3684 17.8846C87.5129 18.4808 86.2716 18.812 84.79 18.812V19.812C86.4024 19.812 87.8651 19.4542 88.9401 18.7049C90.0346 17.9422 90.698 16.7905 90.698 15.308H89.698ZM84.79 18.812C82.9585 18.812 81.4776 18.3465 80.3273 17.0554L79.5807 17.7206C80.9784 19.2895 82.7735 19.812 84.79 19.812V18.812ZM80.296 17.7528L82.376 15.8028L81.692 15.0732L79.612 17.0232L80.296 17.7528ZM81.6644 15.7747C82.2217 16.3864 82.7439 16.8167 83.2924 17.091C83.8485 17.369 84.4022 17.472 84.998 17.472V16.472C84.5278 16.472 84.1325 16.393 83.7396 16.1965C83.3391 15.9963 82.9123 15.6596 82.4036 15.1013L81.6644 15.7747ZM84.998 17.472C85.6467 17.472 86.2682 17.3108 86.7435 16.9953C87.2254 16.6754 87.578 16.1763 87.578 15.542H86.578C86.578 15.7657 86.4626 15.9816 86.1905 16.1622C85.9118 16.3472 85.4933 16.472 84.998 16.472V17.472ZM87.578 15.542C87.578 15.1258 87.4425 14.7724 87.1968 14.4865C86.9617 14.2129 86.6472 14.0257 86.323 13.8866C85.6933 13.6162 84.8488 13.4595 84.0958 13.2867L83.8722 14.2613C84.7052 14.4525 85.4077 14.5818 85.9285 14.8054C86.1796 14.9133 86.3412 15.0251 86.4384 15.1382C86.5251 15.2391 86.578 15.3602 86.578 15.542H87.578ZM84.0964 13.2868C83.248 13.091 82.4334 12.8613 81.8276 12.4132C81.2595 11.9931 80.844 11.3574 80.844 10.238H79.844C79.844 11.6666 80.4035 12.6039 81.233 13.2173C82.0246 13.8027 83.03 14.067 83.8716 14.2612L84.0964 13.2868ZM80.844 10.238C80.844 8.90541 81.4563 8.04895 82.3098 7.50356C83.1879 6.94239 84.3339 6.708 85.336 6.708V5.708C84.2061 5.708 82.8562 5.96761 81.7713 6.66094C80.6617 7.37005 79.844 8.52859 79.844 10.238H80.844Z" fill="black"/>
</svg>
